<svg height="1166" width="720" xmlns="http://www.w3.org/2000/svg">
<rect height="1166" fill="#555" width="720"></rect>
<text fill="#7f7" font-family="Courier New" font-size="12" xml:space="preserve">
<tspan x="10" y="26">11 megabytes installed</tspan>
<tspan x="10" y="42"></tspan>
<tspan x="10" y="58">node_modules</tspan>
<tspan x="10" y="74">└─┬ qunit@1.0.0 </tspan>
<tspan x="10" y="90">  ├── argsparser@0.0.7 </tspan>
<tspan x="10" y="106">  ├─┬ cli-table@0.3.1 </tspan>
<tspan x="10" y="122">  │ └── colors@1.0.3 </tspan>
<tspan x="10" y="138">  ├── co@4.6.0 </tspan>
<tspan x="10" y="154">  ├─┬ istanbul@0.4.5 </tspan>
<tspan x="10" y="170">  │ ├── abbrev@1.0.9 </tspan>
<tspan x="10" y="186">  │ ├── async@1.5.2 </tspan>
<tspan x="10" y="202">  │ ├─┬ escodegen@1.8.1 </tspan>
<tspan x="10" y="218">  │ │ ├── estraverse@1.9.3 </tspan>
<tspan x="10" y="234">  │ │ ├── esutils@2.0.2 </tspan>
<tspan x="10" y="250">  │ │ ├─┬ optionator@0.8.2 </tspan>
<tspan x="10" y="266">  │ │ │ ├── deep-is@0.1.3 </tspan>
<tspan x="10" y="282">  │ │ │ ├── fast-levenshtein@2.0.6 </tspan>
<tspan x="10" y="298">  │ │ │ ├── levn@0.3.0 </tspan>
<tspan x="10" y="314">  │ │ │ ├── prelude-ls@1.1.2 </tspan>
<tspan x="10" y="330">  │ │ │ └── type-check@0.3.2 </tspan>
<tspan x="10" y="346">  │ │ └─┬ source-map@0.2.0 </tspan>
<tspan x="10" y="362">  │ │   └── amdefine@1.0.1 </tspan>
<tspan x="10" y="378">  │ ├── esprima@2.7.3 </tspan>
<tspan x="10" y="394">  │ ├─┬ glob@5.0.15 </tspan>
<tspan x="10" y="410">  │ │ ├── inflight@1.0.6 </tspan>
<tspan x="10" y="426">  │ │ ├── inherits@2.0.3 </tspan>
<tspan x="10" y="442">  │ │ ├─┬ minimatch@3.0.3 </tspan>
<tspan x="10" y="458">  │ │ │ └─┬ brace-expansion@1.1.7 </tspan>
<tspan x="10" y="474">  │ │ │   ├── balanced-match@0.4.2 </tspan>
<tspan x="10" y="490">  │ │ │   └── concat-map@0.0.1 </tspan>
<tspan x="10" y="506">  │ │ └── path-is-absolute@1.0.1 </tspan>
<tspan x="10" y="522">  │ ├─┬ handlebars@4.0.6 </tspan>
<tspan x="10" y="538">  │ │ ├─┬ optimist@0.6.1 </tspan>
<tspan x="10" y="554">  │ │ │ ├── minimist@0.0.10 </tspan>
<tspan x="10" y="570">  │ │ │ └── wordwrap@0.0.3 </tspan>
<tspan x="10" y="586">  │ │ ├── source-map@0.4.4 </tspan>
<tspan x="10" y="602">  │ │ └─┬ uglify-js@2.8.22 </tspan>
<tspan x="10" y="618">  │ │   ├── source-map@0.5.6 </tspan>
<tspan x="10" y="634">  │ │   ├── uglify-to-browserify@1.0.2 </tspan>
<tspan x="10" y="650">  │ │   └─┬ yargs@3.10.0 </tspan>
<tspan x="10" y="666">  │ │     ├── camelcase@1.2.1 </tspan>
<tspan x="10" y="682">  │ │     ├─┬ cliui@2.1.0 </tspan>
<tspan x="10" y="698">  │ │     │ ├─┬ center-align@0.1.3 </tspan>
<tspan x="10" y="714">  │ │     │ │ ├─┬ align-text@0.1.4 </tspan>
<tspan x="10" y="730">  │ │     │ │ │ ├─┬ kind-of@3.1.0 </tspan>
<tspan x="10" y="746">  │ │     │ │ │ │ └── is-buffer@1.1.5 </tspan>
<tspan x="10" y="762">  │ │     │ │ │ ├── longest@1.0.1 </tspan>
<tspan x="10" y="778">  │ │     │ │ │ └── repeat-string@1.6.1 </tspan>
<tspan x="10" y="794">  │ │     │ │ └── lazy-cache@1.0.4 </tspan>
<tspan x="10" y="810">  │ │     │ ├── right-align@0.1.3 </tspan>
<tspan x="10" y="826">  │ │     │ └── wordwrap@0.0.2 </tspan>
<tspan x="10" y="842">  │ │     ├── decamelize@1.2.0 </tspan>
<tspan x="10" y="858">  │ │     └── window-size@0.1.0 </tspan>
<tspan x="10" y="874">  │ ├─┬ js-yaml@3.8.3 </tspan>
<tspan x="10" y="890">  │ │ ├─┬ argparse@1.0.9 </tspan>
<tspan x="10" y="906">  │ │ │ └── sprintf-js@1.0.3 </tspan>
<tspan x="10" y="922">  │ │ └── esprima@3.1.3 </tspan>
<tspan x="10" y="938">  │ ├─┬ mkdirp@0.5.1 </tspan>
<tspan x="10" y="954">  │ │ └── minimist@0.0.8 </tspan>
<tspan x="10" y="970">  │ ├── nopt@3.0.6 </tspan>
<tspan x="10" y="986">  │ ├─┬ once@1.4.0 </tspan>
<tspan x="10" y="1002">  │ │ └── wrappy@1.0.2 </tspan>
<tspan x="10" y="1018">  │ ├── resolve@1.1.7 </tspan>
<tspan x="10" y="1034">  │ ├─┬ supports-color@3.2.3 </tspan>
<tspan x="10" y="1050">  │ │ └── has-flag@1.0.0 </tspan>
<tspan x="10" y="1066">  │ ├─┬ which@1.2.14 </tspan>
<tspan x="10" y="1082">  │ │ └── isexe@2.0.0 </tspan>
<tspan x="10" y="1098">  │ └── wordwrap@1.0.0 </tspan>
<tspan x="10" y="1114">  ├── qunitjs@2.1.1 </tspan>
<tspan x="10" y="1130">  ├── tracejs@0.1.8 </tspan>
<tspan x="10" y="1146">  └── underscore@1.8.3</tspan>
</text>
</svg>
